<?xml version="1.0" encoding="UTF-8" standalone="no"?>
<!DOCTYPE svg PUBLIC "-//W3C//DTD SVG 1.1//EN" "http://www.w3.org/Graphics/SVG/1.1/DTD/svg11.dtd">
<svg width="100%" height="100%" viewBox="0 0 300 300" version="1.1" xmlns="http://www.w3.org/2000/svg" xmlns:xlink="http://www.w3.org/1999/xlink" xml:space="preserve" xmlns:serif="http://www.serif.com/" style="fill-rule:evenodd;clip-rule:evenodd;stroke-linecap:round;stroke-linejoin:round;stroke-miterlimit:1.5;">
    <g id="brackets">
        <path d="M275.943,96.682C281.72,90.905 281.72,81.523 275.943,75.746L224.754,24.557C218.977,18.78 209.595,18.78 203.818,24.557L26.057,202.318C20.28,208.095 20.28,217.477 26.057,223.254L77.246,274.443C83.023,280.22 92.405,280.22 98.182,274.443L275.943,96.682Z" style="fill:#ccc;stroke:#ccc;stroke-width:2px;"/>
        <path d="M124.812,206.093C129.008,201.898 129.008,195.086 124.812,190.89L109.61,175.688C105.414,171.492 98.602,171.492 94.407,175.688L60.279,209.815C56.084,214.01 56.084,220.823 60.279,225.018L75.482,240.221C79.677,244.416 86.49,244.416 90.685,240.221L124.812,206.093Z" style="fill:#fff;stroke:#ccc;stroke-width:2px;"/>
        <path d="M247.142,83.764C251.337,79.568 251.337,72.756 247.142,68.561L231.939,53.358C227.744,49.163 220.932,49.163 216.736,53.358L164.931,105.163C160.736,109.359 160.736,116.171 164.931,120.366L180.134,135.569C184.329,139.764 191.141,139.764 195.337,135.569L247.142,83.764Z" style="fill:#fff;stroke:#ccc;stroke-width:2px;"/>
        <path d="M111.048,124.398L173.981,187.33" style="fill:none;stroke:#ccc;stroke-width:1px;"/>
        <g>
            <path d="M219.506,34.325C221.327,36.146 221.327,39.104 219.506,40.925C217.685,42.746 214.727,42.746 212.906,40.925C211.085,39.104 211.085,36.146 212.906,34.325C214.727,32.504 217.685,32.504 219.506,34.325Z" style="fill:#fff;stroke:#ccc;stroke-width:1px;"/>
            <path d="M208.645,45.186C210.466,47.008 210.466,49.965 208.645,51.786C206.823,53.607 203.866,53.607 202.045,51.786C200.224,49.965 200.224,47.008 202.045,45.186C203.866,43.365 206.823,43.365 208.645,45.186Z" style="fill:#fff;stroke:#ccc;stroke-width:1px;"/>
            <path d="M147.066,106.764C148.888,108.586 148.888,111.543 147.066,113.364C145.245,115.185 142.288,115.185 140.467,113.364C138.646,111.543 138.646,108.586 140.467,106.764C142.288,104.943 145.245,104.943 147.066,106.764Z" style="fill:#fff;stroke:#ccc;stroke-width:1px;"/>
            <path d="M102.225,151.606C104.046,153.428 104.046,156.385 102.225,158.206C100.403,160.027 97.446,160.027 95.625,158.206C93.804,156.385 93.804,153.428 95.625,151.606C97.446,149.785 100.403,149.785 102.225,151.606Z" style="fill:#fff;stroke:#ccc;stroke-width:1px;"/>
            <path d="M42.425,211.406C44.246,213.227 44.246,216.185 42.425,218.006C40.604,219.827 37.646,219.827 35.825,218.006C34.004,216.185 34.004,213.227 35.825,211.406C37.646,209.585 40.604,209.585 42.425,211.406Z" style="fill:#fff;stroke:#ccc;stroke-width:1px;"/>
            <path d="M266.175,80.994C267.996,82.815 267.996,85.773 266.175,87.594C264.354,89.415 261.396,89.415 259.575,87.594C257.754,85.773 257.754,82.815 259.575,80.994C261.396,79.173 264.354,79.173 266.175,80.994Z" style="fill:#fff;stroke:#ccc;stroke-width:1px;"/>
            <path d="M255.314,91.855C257.135,93.677 257.135,96.634 255.314,98.455C253.492,100.276 250.535,100.276 248.714,98.455C246.893,96.634 246.893,93.677 248.714,91.855C250.535,90.034 253.492,90.034 255.314,91.855Z" style="fill:#fff;stroke:#ccc;stroke-width:1px;"/>
            <path d="M193.736,153.434C195.557,155.255 195.557,158.212 193.736,160.033C191.914,161.854 188.957,161.854 187.136,160.033C185.315,158.212 185.315,155.255 187.136,153.434C188.957,151.612 191.914,151.612 193.736,153.434Z" style="fill:#fff;stroke:#ccc;stroke-width:1px;"/>
            <path d="M148.894,198.275C150.715,200.097 150.715,203.054 148.894,204.875C147.072,206.696 144.115,206.696 142.294,204.875C140.473,203.054 140.473,200.097 142.294,198.275C144.115,196.454 147.072,196.454 148.894,198.275Z" style="fill:#fff;stroke:#ccc;stroke-width:1px;"/>
            <path d="M89.094,258.075C90.915,259.896 90.915,262.854 89.094,264.675C87.273,266.496 84.315,266.496 82.494,264.675C80.673,262.854 80.673,259.896 82.494,258.075C84.315,256.254 87.273,256.254 89.094,258.075Z" style="fill:#fff;stroke:#ccc;stroke-width:1px;"/>
        </g>
    </g>
</svg>
