<?xml version="1.0" encoding="UTF-8" standalone="no"?>
<!DOCTYPE svg PUBLIC "-//W3C//DTD SVG 1.1//EN" "http://www.w3.org/Graphics/SVG/1.1/DTD/svg11.dtd">
<svg width="100%" height="100%" viewBox="0 0 300 300" version="1.1" xmlns="http://www.w3.org/2000/svg" xmlns:xlink="http://www.w3.org/1999/xlink" xml:space="preserve" xmlns:serif="http://www.serif.com/" style="fill-rule:evenodd;clip-rule:evenodd;stroke-linecap:round;stroke-linejoin:round;stroke-miterlimit:1.5;">
    <g>
        <g id="brackets">
            <path d="M275.943,96.682c5.777,-5.777 5.777,-15.159 0,-20.936l-51.189,-51.189c-5.777,-5.777 -15.159,-5.777 -20.936,0l-177.761,177.761c-5.777,5.777 -5.777,15.159 0,20.936l51.189,51.189c5.777,5.777 15.159,5.777 20.936,0l177.761,-177.761Z" style="fill:none;stroke:#ccc;stroke-width:2px;"/>
            <path d="M124.812,206.093c4.196,-4.195 4.196,-11.007 0,-15.203l-15.202,-15.202c-4.196,-4.196 -11.008,-4.196 -15.203,0l-34.128,34.127c-4.195,4.195 -4.195,11.008 0,15.203l15.203,15.203c4.195,4.195 11.008,4.195 15.203,0l34.127,-34.128Z" style="fill:none;stroke:#ccc;stroke-width:2px;"/>
            <path d="M247.142,83.764c4.195,-4.196 4.195,-11.008 0,-15.203l-15.203,-15.203c-4.195,-4.195 -11.007,-4.195 -15.203,0l-51.805,51.805c-4.195,4.196 -4.195,11.008 0,15.203l15.203,15.203c4.195,4.195 11.007,4.195 15.203,0l51.805,-51.805Z" style="fill:none;stroke:#ccc;stroke-width:2px;"/>
            <path d="M111.048,124.398l62.933,62.932" style="fill:none;stroke:#ccc;stroke-width:1px;"/>
            <g>
                <path d="M219.506,34.325c1.821,1.821 1.821,4.779 0,6.6c-1.821,1.821 -4.779,1.821 -6.6,0c-1.821,-1.821 -1.821,-4.779 0,-6.6c1.821,-1.821 4.779,-1.821 6.6,0Z" style="fill:none;stroke:#ccc;stroke-width:1px;"/>
                <path d="M208.645,45.186c1.821,1.822 1.821,4.779 0,6.6c-1.822,1.821 -4.779,1.821 -6.6,0c-1.821,-1.821 -1.821,-4.778 0,-6.6c1.821,-1.821 4.778,-1.821 6.6,0Z" style="fill:none;stroke:#ccc;stroke-width:1px;"/>
                <path d="M147.066,106.764c1.822,1.822 1.822,4.779 0,6.6c-1.821,1.821 -4.778,1.821 -6.599,0c-1.821,-1.821 -1.821,-4.778 0,-6.6c1.821,-1.821 4.778,-1.821 6.599,0Z" style="fill:none;stroke:#ccc;stroke-width:1px;"/>
                <path d="M102.225,151.606c1.821,1.822 1.821,4.779 0,6.6c-1.822,1.821 -4.779,1.821 -6.6,0c-1.821,-1.821 -1.821,-4.778 0,-6.6c1.821,-1.821 4.778,-1.821 6.6,0Z" style="fill:none;stroke:#ccc;stroke-width:1px;"/>
                <path d="M42.425,211.406c1.821,1.821 1.821,4.779 0,6.6c-1.821,1.821 -4.779,1.821 -6.6,0c-1.821,-1.821 -1.821,-4.779 0,-6.6c1.821,-1.821 4.779,-1.821 6.6,0Z" style="fill:none;stroke:#ccc;stroke-width:1px;"/>
                <path d="M266.175,80.994c1.821,1.821 1.821,4.779 0,6.6c-1.821,1.821 -4.779,1.821 -6.6,0c-1.821,-1.821 -1.821,-4.779 0,-6.6c1.821,-1.821 4.779,-1.821 6.6,0Z" style="fill:none;stroke:#ccc;stroke-width:1px;"/>
                <path d="M255.314,91.855c1.821,1.822 1.821,4.779 0,6.6c-1.822,1.821 -4.779,1.821 -6.6,0c-1.821,-1.821 -1.821,-4.778 0,-6.6c1.821,-1.821 4.778,-1.821 6.6,0Z" style="fill:none;stroke:#ccc;stroke-width:1px;"/>
                <path d="M193.736,153.434c1.821,1.821 1.821,4.778 0,6.599c-1.822,1.821 -4.779,1.821 -6.6,0c-1.821,-1.821 -1.821,-4.778 0,-6.599c1.821,-1.822 4.778,-1.822 6.6,0Z" style="fill:none;stroke:#ccc;stroke-width:1px;"/>
                <path d="M148.894,198.275c1.821,1.822 1.821,4.779 0,6.6c-1.822,1.821 -4.779,1.821 -6.6,0c-1.821,-1.821 -1.821,-4.778 0,-6.6c1.821,-1.821 4.778,-1.821 6.6,0Z" style="fill:none;stroke:#ccc;stroke-width:1px;"/>
                <path d="M89.094,258.075c1.821,1.821 1.821,4.779 0,6.6c-1.821,1.821 -4.779,1.821 -6.6,0c-1.821,-1.821 -1.821,-4.779 0,-6.6c1.821,-1.821 4.779,-1.821 6.6,0Z" style="fill:none;stroke:#ccc;stroke-width:1px;"/>
            </g>
        </g>
    </g>
</svg>
