<?xml version="1.0" encoding="UTF-8" standalone="no"?>
<!DOCTYPE svg PUBLIC "-//W3C//DTD SVG 1.1//EN" "http://www.w3.org/Graphics/SVG/1.1/DTD/svg11.dtd">
<svg width="100%" height="100%" viewBox="0 0 300 300" version="1.1" xmlns="http://www.w3.org/2000/svg" xmlns:xlink="http://www.w3.org/1999/xlink" xml:space="preserve" xmlns:serif="http://www.serif.com/" style="fill-rule:evenodd;clip-rule:evenodd;stroke-linejoin:round;stroke-miterlimit:1.41421;">
    <rect x="72" y="76.367" width="156" height="132.889" style="fill:none;"/>
    <path d="M202.942,84.364L200.636,91.869C200.47,92.413 200.468,92.994 200.631,93.539C200.793,94.084 202.659,100.472 204.057,104.152C205.426,107.769 207.16,110.988 208.436,114.148C209.944,117.863 211.632,121.151 212.261,124.328C212.914,127.628 213.053,131.077 212.62,134.376C211.697,141.182 209.669,147.792 206.616,153.945C203.78,159.654 199.718,164.906 195.228,169.736C189.081,176.352 181.951,182.176 174.353,187.231C168.142,191.362 161.677,195.106 154.842,197.331C144.309,200.751 133.239,203.397 122.665,202.346C115.114,201.589 107.574,197.926 100.23,194.084C94.296,190.987 84.965,183.533 82.579,181.65L85.012,178.2C87.005,178.449 98.087,179.905 105.511,179.027C118.702,177.472 131.65,173.515 143.662,168.17C154.969,163.138 166.172,156.869 175.376,148.231C183.11,140.961 189.372,132.268 193.819,122.63C196.566,116.712 198.115,110.308 198.377,103.788C198.452,101.604 197.984,99.207 197.551,97.144C197.187,95.445 196.939,94.532 196.817,94.082L198.539,82.96L202.942,84.364Z" style="fill:#ccc;"/>
    <path d="M208.101,80.042C207.887,79.903 207.656,79.793 207.414,79.712L197.077,76.442C196.794,76.353 196.5,76.307 196.203,76.307C194.788,76.307 193.57,77.345 193.345,78.742L191.016,93.741C190.955,94.144 190.98,94.556 191.092,94.948C191.203,95.341 191.502,96.456 191.9,98.34C192.299,100.229 192.64,102.575 192.611,103.592C192.367,109.348 190.995,115 188.572,120.226C184.434,129.178 178.616,137.253 171.436,144.013C162.919,151.998 152.276,158.001 141.31,162.884C129.743,168.032 117.332,171.81 104.835,173.284C98.584,174.023 83.902,172.376 83.902,172.376C82.845,172.248 81.8,172.713 81.187,173.584L76.189,180.691C75.334,181.932 75.577,183.642 76.744,184.596C77.91,185.551 89.536,195.02 97.555,199.208C104.974,203.085 113.109,207.193 122.088,208.089C133.99,209.273 145.817,206.332 156.633,202.82C164.254,200.341 171.147,196.296 177.554,192.038C185.47,186.775 192.946,180.679 199.458,173.671C204.178,168.592 208.616,162.936 211.799,156.522C215.135,149.798 217.347,142.572 218.345,135.133C218.865,131.164 218.709,127.102 217.941,123.202L217.929,123.196C217.08,118.915 215.15,115.327 213.792,111.987C212.36,108.44 210.649,105.25 209.453,102.101C208.358,98.993 207.35,95.854 206.432,92.689L209.309,83.318C209.685,82.082 209.19,80.737 208.101,80.042ZM202.942,84.364L200.636,91.869C200.47,92.413 200.468,92.994 200.631,93.539C200.793,94.084 202.659,100.472 204.057,104.152C205.426,107.769 207.16,110.988 208.436,114.148C209.944,117.863 211.632,121.151 212.261,124.328C212.914,127.628 213.053,131.077 212.62,134.376C211.697,141.182 209.669,147.792 206.616,153.945C203.78,159.654 199.718,164.906 195.228,169.736C189.081,176.352 181.951,182.176 174.353,187.231C168.142,191.362 161.677,195.106 154.842,197.331C144.309,200.751 133.239,203.397 122.665,202.346C115.114,201.589 107.574,197.926 100.23,194.084C94.296,190.987 84.965,183.533 82.579,181.65L85.012,178.2C87.005,178.449 98.087,179.905 105.511,179.027C118.702,177.472 131.65,173.515 143.662,168.17C154.969,163.138 166.172,156.869 175.376,148.231C183.11,140.961 189.372,132.268 193.819,122.63C196.566,116.712 198.115,110.308 198.377,103.788C198.452,101.604 197.984,99.207 197.551,97.144C197.187,95.445 196.939,94.532 196.817,94.082L198.539,82.96L202.942,84.364Z" style="fill:#ccc;"/>
    <path d="M177.961,170.748C176.996,170.325 175.873,170.463 175.038,171.107L172.94,172.672C168.117,176.293 143.233,188.226 137.202,188.173L134.585,188.156C134.576,188.155 134.568,188.155 134.559,188.155C132.974,188.155 131.67,189.46 131.67,191.044C131.67,192.619 132.958,193.919 134.533,193.933L137.15,193.951C144.448,194.014 170.569,181.674 176.407,177.295L178.504,175.729C179.245,175.184 179.683,174.317 179.683,173.398C179.683,172.31 179.07,171.311 178.1,170.818L177.961,170.748Z" style="fill:#fff;"/>
</svg>
