<svg xmlns="http://www.w3.org/2000/svg" width="450" height="450" viewBox="0 0 450 450">
  <path d="M354.375,255.15 C349.65,272.08125 322.5375,333.045 279.86625,335.745 C237.195,338.445 170.80875,331.02 155.21625,341.1675 C139.64625,351.32625 132.19875,355.39875 124.07625,360.135 C111.87,349.97625 67.15125,308.655 67.15125,308.655 C67.15125,308.655 88.155,294.435 122.70375,295.11 C157.24125,295.785 160.63875,286.30125 153.19125,278.17875 C145.7325,270.045 118.65375,227.37375 52.25625,209.08125 C58.185,188.22375 63.75375,170.19 71.60625,153.68625 C137.01375,152.505 189.09,177.93 231.53625,204.13125 C210.76875,166.19625 132.84,133.965 86.38875,128.61 C96.0075,115.335 108.41625,102.70125 125.42625,89.8875 C180.95625,107.49375 262.92375,131.88375 285.28875,218.5875 C299.4975,213.8625 307.63125,188.775 354.36375,187.425 C368.60625,187.02 388.90125,196.23375 397.72125,204.3675 C376.0425,215.20125 359.11125,238.23 354.36375,255.16125 M225,0 C100.74375,0 0,100.7325 0,225 C0,349.25625 100.74375,450 225,450 C349.25625,450 450,349.25625 450,225 C450,100.7325 349.25625,0 225,0"/>
</svg>
