<?xml version="1.0" encoding="UTF-8" standalone="no"?>
<!DOCTYPE svg PUBLIC "-//W3C//DTD SVG 1.1//EN" "http://www.w3.org/Graphics/SVG/1.1/DTD/svg11.dtd">
<svg width="100%" height="100%" viewBox="0 0 500 500" version="1.1" xmlns="http://www.w3.org/2000/svg" xmlns:xlink="http://www.w3.org/1999/xlink" xml:space="preserve" xmlns:serif="http://www.serif.com/" style="fill-rule:evenodd;clip-rule:evenodd;stroke-linecap:round;stroke-linejoin:round;stroke-miterlimit:1.5;">
    <g id="hanger">
        <path d="M250,217.129l-106.485,0l0,12.567c0,0 38.462,0 56.4,0c17.938,0 21.013,13.885 25.693,24.186c4.679,10.301 14.35,15.731 15.349,22.039c1,6.309 9.043,7.047 9.043,7.047c0,0 8.051,-0.738 9.05,-7.047c0.999,-6.308 10.67,-11.738 15.349,-22.039c4.68,-10.301 7.755,-24.186 25.693,-24.186c17.938,0 56.401,0 56.401,0l0,-12.567l-106.493,0Z" style="fill:none;stroke:#ccc;stroke-width:2px;"/>
        <path d="M143.515,216.965c0,0 38.462,0 56.4,0c17.938,0 21.013,13.885 25.693,24.186c4.679,10.301 14.35,15.73 15.349,22.039c1,6.308 9.043,7.046 9.043,7.046c0,0 8.051,-0.738 9.05,-7.046c0.999,-6.309 10.67,-11.738 15.349,-22.039c4.68,-10.301 7.755,-24.186 25.693,-24.186c17.938,0 56.401,0 56.401,0" style="fill:none;stroke:#ccc;stroke-width:1px;"/>
        <path d="M250,217.381l-106.485,0l0,-13.475l212.978,0l0,13.475l-106.486,0" style="fill:none;stroke:#ccc;stroke-width:2px;"/>
        <ellipse cx="249.8" cy="228.459" rx="19.773" ry="12.398" style="fill:none;stroke:#ccc;stroke-width:2px;"/>
        <ellipse cx="249.8" cy="229.702" rx="17.792" ry="11.156" style="fill:none;stroke:#ccc;stroke-width:1px;"/>
    </g>
    <g id="bars">
        <rect id="bar" x="103.007" y="211.867" width="40.507" height="7.671" style="fill:none;stroke:#ccc;stroke-width:1px;"/>
        <rect id="bar1" serif:id="bar" x="356.493" y="211.867" width="40.507" height="7.671" style="fill:none;stroke:#ccc;stroke-width:1px;"/>
        <g id="threads">
            <path d="M103.215,212.081l1.935,7.486" style="fill:none;stroke:#ccc;stroke-width:0.5px;"/>
            <path d="M103.215,212.081l1.935,7.486" style="fill:none;stroke:#ccc;stroke-width:0.5px;"/>
            <path d="M103.092,215.252l1.208,4.315" style="fill:none;stroke:#ccc;stroke-width:0.5px;"/>
            <path d="M104.21,212.081l1.935,7.486" style="fill:none;stroke:#ccc;stroke-width:0.5px;"/>
            <path d="M105.206,212.081l1.935,7.486" style="fill:none;stroke:#ccc;stroke-width:0.5px;"/>
            <path d="M106.201,212.081l1.935,7.486" style="fill:none;stroke:#ccc;stroke-width:0.5px;"/>
            <path d="M107.196,212.081l1.935,7.486" style="fill:none;stroke:#ccc;stroke-width:0.5px;"/>
            <path d="M108.192,212.081l1.935,7.486" style="fill:none;stroke:#ccc;stroke-width:0.5px;"/>
            <path d="M109.187,212.081l1.935,7.486" style="fill:none;stroke:#ccc;stroke-width:0.5px;"/>
            <path d="M110.182,212.081l1.935,7.486" style="fill:none;stroke:#ccc;stroke-width:0.5px;"/>
            <path d="M111.178,212.081l1.934,7.486" style="fill:none;stroke:#ccc;stroke-width:0.5px;"/>
        </g>
        <g id="threads1" serif:id="threads">
            <path d="M386.868,212.081l1.935,7.486" style="fill:none;stroke:#ccc;stroke-width:0.5px;"/>
            <path d="M386.868,212.081l1.935,7.486" style="fill:none;stroke:#ccc;stroke-width:0.5px;"/>
            <path d="M395.652,211.935l1.208,4.315" style="fill:none;stroke:#ccc;stroke-width:0.5px;"/>
            <path d="M387.863,212.081l1.935,7.486" style="fill:none;stroke:#ccc;stroke-width:0.5px;"/>
            <path d="M388.859,212.081l1.934,7.486" style="fill:none;stroke:#ccc;stroke-width:0.5px;"/>
            <path d="M389.854,212.081l1.935,7.486" style="fill:none;stroke:#ccc;stroke-width:0.5px;"/>
            <path d="M390.849,212.081l1.935,7.486" style="fill:none;stroke:#ccc;stroke-width:0.5px;"/>
            <path d="M391.844,212.081l1.935,7.486" style="fill:none;stroke:#ccc;stroke-width:0.5px;"/>
            <path d="M392.84,212.081l1.935,7.486" style="fill:none;stroke:#ccc;stroke-width:0.5px;"/>
            <path d="M393.835,212.081l1.935,7.486" style="fill:none;stroke:#ccc;stroke-width:0.5px;"/>
            <path d="M394.83,212.081l1.935,7.486" style="fill:none;stroke:#ccc;stroke-width:0.5px;"/>
        </g>
    </g>
    <ellipse cx="250" cy="220.355" rx="17.449" ry="13.397" style="fill:none;stroke:#ccc;stroke-width:2px;"/>
    <ellipse cx="250" cy="211.498" rx="6.379" ry="4.54" style="fill:none;stroke:#ccc;stroke-width:1px;"/>
    <ellipse cx="250" cy="212.678" rx="7.26" ry="5.72" style="fill:none;stroke:#ccc;stroke-width:1px;"/>
    <ellipse cx="250" cy="218.618" rx="16.595" ry="11.66" style="fill:none;stroke:#ccc;stroke-width:1px;"/>
    <g id="baseplate">
        <path d="M285.561,299.391l-71.115,0l0,-7.75l5.337,-18.127l14.212,0l0,-6.823l6.962,-3.795l18.093,0l6.962,3.795l0,6.823l14.213,0l5.336,18.127l0,7.75Z" style="fill:none;stroke:#ccc;stroke-width:2px;"/>
        <path d="M214.783,291.641l19.666,0l0,-5.937l0,-12.303l0,12.303l6.508,-9.424l0,-13.423l0,13.423l18.093,0l0,-13.423l0,13.423l6.485,9.424l0,-12.303l0,18.24l19.69,0" style="fill:none;stroke:#ccc;stroke-width:1px;"/>
        <path d="M243.027,210.797l-2.07,5.886l4.093,4.699l9.639,0l4.553,-4.699l-2.388,-5.886" style="fill:none;stroke:#ccc;stroke-width:1px;"/>
        <path d="M240.881,216.795l0,3.033l4.174,4.772l9.789,0l4.318,-4.772l0,-3.033" style="fill:none;stroke:#ccc;stroke-width:1px;"/>
    </g>
</svg>
