<?xml version="1.0" standalone="no"?>
<!DOCTYPE svg PUBLIC "-//W3C//DTD SVG 20010904//EN"
 "http://www.w3.org/TR/2001/REC-SVG-20010904/DTD/svg10.dtd">
<svg version="1.0" xmlns="http://www.w3.org/2000/svg"
 width="700.000000pt" height="700.000000pt" viewBox="0 0 700.000000 700.000000"
 preserveAspectRatio="xMidYMid meet">
<metadata>
Created by potrace 1.11, written by Peter Selinger 2001-2013
</metadata>
<g transform="translate(0.000000,700.000000) scale(0.100000,-0.100000)"
fill="#000000" stroke="none">
<path d="M0 3500 l0 -3500 3500 0 3500 0 0 3500 0 3500 -3500 0 -3500 0 0
-3500z m3318 2635 c47 -20 78 -50 105 -100 l22 -40 0 -2500 0 -2501 -26 -49
c-18 -35 -39 -59 -74 -80 l-48 -30 -1130 -3 c-779 -2 -1141 1 -1168 8 -22 6
-58 27 -79 46 -77 70 -71 -171 -68 2626 l3 2506 30 43 c17 23 50 53 74 66 l44
23 1139 0 c1005 0 1143 -2 1176 -15z m2743 -8 c24 -13 58 -43 74 -66 l30 -43
3 -1146 c2 -796 0 -1158 -8 -1184 -14 -49 -53 -94 -104 -121 l-41 -22 -1135 0
c-898 0 -1143 3 -1171 13 -47 16 -105 74 -121 121 -10 28 -13 274 -13 1176 l0
1140 22 40 c26 49 57 79 103 99 31 13 179 15 1176 16 l1141 0 44 -23z m-46
-2698 c24 -6 62 -26 84 -45 76 -66 72 19 69 -1269 l-3 -1150 -27 -38 c-14 -22
-43 -51 -65 -65 l-38 -27 -1140 -3 c-792 -2 -1151 0 -1177 8 -49 14 -94 53
-121 104 l-22 41 -3 1115 c-2 763 1 1131 8 1165 18 84 77 147 152 165 54 13
2232 12 2283 -1z"/>
</g>
</svg>
